<svg width="580" height="144" viewBox="0 0 580 144" fill="none" xmlns="http://www.w3.org/2000/svg">
<path d="M127.927 56.3867C127.927 54.73 126.583 53.387 124.927 53.3867H19.6143C17.9574 53.3867 16.6143 54.7299 16.6143 56.3867V128.227C16.6143 129.883 17.9574 131.227 19.6143 131.227H124.927C126.583 131.226 127.927 129.883 127.927 128.227V56.3867ZM93.1553 32.6641C93.1553 31.0072 91.8121 29.6641 90.1553 29.6641H53.4102C51.7534 29.6642 50.4102 31.0073 50.4102 32.6641V47.3867H93.1553V32.6641ZM99.1553 47.3867H124.927C129.897 47.387 133.927 51.4163 133.927 56.3867V128.227C133.927 133.197 129.897 137.226 124.927 137.227H19.6143C14.6437 137.227 10.6143 133.197 10.6143 128.227V56.3867C10.6143 51.4162 14.6437 47.3867 19.6143 47.3867H44.4102V32.6641C44.4102 27.6936 48.4397 23.6642 53.4102 23.6641H90.1553C95.1258 23.6641 99.1553 27.6935 99.1553 32.6641V47.3867Z" fill="#EB5600"/>
<path d="M76.6382 70.6084C77.8098 69.4368 79.7088 69.4368 80.8804 70.6084L98.8013 88.5293C100.754 90.4819 100.754 93.648 98.8013 95.6006L80.8804 113.521C79.7088 114.693 77.8097 114.693 76.6382 113.521C75.4667 112.35 75.4667 110.451 76.6382 109.279L93.8521 92.0645L76.6382 74.8506C75.4666 73.679 75.4666 71.78 76.6382 70.6084Z" fill="#EB5600"/>
<path d="M67.3618 70.6084C66.1902 69.4368 64.2912 69.4368 63.1196 70.6084L45.1987 88.5293C43.2461 90.4819 43.2461 93.648 45.1987 95.6006L63.1196 113.521C64.2912 114.693 66.1903 114.693 67.3618 113.521C68.5333 112.35 68.5333 110.451 67.3618 109.279L50.1479 92.0645L67.3618 74.8506C68.5334 73.679 68.5334 71.78 67.3618 70.6084Z" fill="#EB5600"/>
<path d="M540.222 132.024C539.309 132.024 538.65 131.466 538.245 130.351L518.012 63.2645C517.302 60.8305 516.592 59.2586 515.882 58.5487C515.274 57.8388 514.26 57.3317 512.84 57.0275L510.558 56.5711C509.24 56.2669 508.581 55.6077 508.581 54.5935C508.581 53.5793 509.29 53.0723 510.71 53.0723H535.811C537.23 53.0723 537.94 53.5793 537.94 54.5935C537.94 55.7091 537.281 56.3683 535.963 56.5711L533.529 56.8753C531.095 57.1796 529.574 57.7881 528.965 58.7008C528.357 59.5121 528.357 61.0334 528.965 63.2645L541.591 107.228C541.896 108.344 542.403 108.901 543.112 108.901C543.822 108.901 544.329 108.344 544.634 107.228L556.956 66.0027C557.767 63.2645 557.97 61.2362 557.564 59.9178C557.26 58.498 555.84 57.5853 553.305 57.1796L550.11 56.5711C548.792 56.2669 548.133 55.6077 548.133 54.5935C548.133 53.5793 548.842 53.0723 550.262 53.0723H569.582C571.002 53.0723 571.712 53.6301 571.712 54.7456C571.712 55.7598 571.103 56.4697 569.886 56.8753L568.517 57.3317C566.996 57.8388 565.677 58.7515 564.562 60.0699C563.548 61.3883 562.534 63.6702 561.519 66.9155L542.2 130.351C541.794 131.466 541.135 132.024 540.222 132.024Z" fill="white"/>
<path d="M487.364 132.024C482.496 132.024 478.135 130.401 474.281 127.156C470.428 123.911 467.335 119.347 465.002 113.465C462.771 107.481 461.655 100.585 461.655 92.776C461.655 84.7642 462.822 77.7159 465.154 71.6309C467.487 65.546 470.681 60.7795 474.738 57.3314C478.794 53.8832 483.307 52.1592 488.277 52.1592C494.26 52.1592 499.078 54.6439 502.728 59.6132C506.481 64.4811 508.357 72.4423 508.357 83.4965C508.357 86.8432 507.089 88.5166 504.554 88.5166H475.651C473.622 88.5166 472.608 89.6829 472.608 92.0154C472.608 102.765 474.18 110.828 477.324 116.203C480.468 121.578 484.474 124.266 489.342 124.266C493.195 124.266 496.339 122.896 498.773 120.158C501.207 117.42 503.185 112.806 504.706 106.315C505.01 105.199 505.67 104.642 506.684 104.642C507.901 104.642 508.357 105.656 508.053 107.684C506.43 116.71 503.844 123.049 500.295 126.699C496.745 130.249 492.435 132.024 487.364 132.024ZM475.194 84.7135H490.559C495.427 84.7135 497.861 82.1781 497.861 77.1074C497.861 70.5154 497.049 65.3432 495.427 61.5908C493.804 57.8384 491.37 55.9623 488.125 55.9623C484.169 55.9623 480.823 58.2441 478.085 62.8078C475.448 67.3715 473.724 73.8621 472.912 82.2796C472.71 83.9022 473.47 84.7135 475.194 84.7135Z" fill="white"/>
<path d="M417.687 132.024C413.225 132.024 409.219 130.502 405.669 127.46C402.221 124.316 399.534 120.006 397.607 114.53C395.68 108.952 394.716 102.512 394.716 95.2099C394.716 86.691 396.035 79.237 398.671 72.8478C401.308 66.3572 404.959 61.2864 409.624 57.6355C414.289 53.9845 419.563 52.1591 425.445 52.1591C426.865 52.1591 428.285 52.3112 429.705 52.6154C431.124 52.8183 432.494 53.2239 433.812 53.8324C435.435 54.6437 436.246 54.2888 436.246 52.7676V33.2958C436.246 31.4703 435.942 30.2026 435.333 29.4927C434.826 28.7828 433.863 28.3771 432.443 28.2757L428.488 27.8194C427.372 27.6165 426.814 27.008 426.814 25.9939C426.814 24.9797 427.372 24.3712 428.488 24.1684C431.733 23.5599 434.319 22.85 436.246 22.0387C438.274 21.2274 439.948 20.416 441.266 19.6047C442.889 18.5906 444.106 18.0835 444.917 18.0835C446.032 18.0835 446.59 18.8948 446.59 20.5175V116.203C446.59 120.462 447.655 122.592 449.785 122.592C451.103 122.592 452.32 121.73 453.436 120.006C454.551 118.18 455.109 115.138 455.109 110.879C455.109 109.256 455.768 108.445 457.087 108.445C458.304 108.445 458.912 109.307 458.912 111.031C458.912 118.434 457.645 123.809 455.109 127.156C452.574 130.401 449.683 132.024 446.438 132.024C443.497 132.024 441.266 131.06 439.745 129.133C438.224 127.105 437.209 124.722 436.702 121.984C436.601 121.172 436.246 120.767 435.637 120.767C435.029 120.665 434.471 121.02 433.964 121.831C431.124 125.787 428.538 128.474 426.206 129.894C423.873 131.314 421.034 132.024 417.687 132.024ZM421.034 125.026C423.67 125.026 426.104 124.164 428.336 122.44C430.668 120.614 432.544 118.18 433.964 115.138C435.485 112.096 436.246 108.698 436.246 104.946V70.7181C436.246 66.1544 435.181 62.5541 433.051 59.9173C431.023 57.2805 428.336 55.9621 424.989 55.9621C419.31 55.9621 414.695 59.3088 411.146 66.0023C407.697 72.5943 405.973 81.6202 405.973 93.0802C405.973 103.526 407.292 111.487 409.929 116.964C412.667 122.339 416.368 125.026 421.034 125.026Z" fill="white"/>
<path d="M379.874 132.024C377.643 132.024 375.716 131.314 374.093 129.894C372.572 128.373 371.812 126.395 371.812 123.961C371.812 121.629 372.572 119.752 374.093 118.333C375.716 116.811 377.643 116.051 379.874 116.051C381.902 116.051 383.728 116.811 385.35 118.333C386.973 119.752 387.784 121.629 387.784 123.961C387.784 126.395 386.973 128.373 385.35 129.894C383.728 131.314 381.902 132.024 379.874 132.024Z" fill="white"/>
<path d="M340.25 132.024C335.382 132.024 331.022 130.401 327.168 127.156C323.314 123.911 320.221 119.347 317.888 113.465C315.657 107.481 314.542 100.585 314.542 92.776C314.542 84.7642 315.708 77.7159 318.04 71.6309C320.373 65.546 323.567 60.7795 327.624 57.3314C331.681 53.8832 336.194 52.1592 341.163 52.1592C347.147 52.1592 351.964 54.6439 355.615 59.6132C359.367 64.4811 361.243 72.4423 361.243 83.4965C361.243 86.8432 359.976 88.5166 357.44 88.5166H328.537C326.509 88.5166 325.494 89.6829 325.494 92.0154C325.494 102.765 327.066 110.828 330.21 116.203C333.354 121.578 337.36 124.266 342.228 124.266C346.082 124.266 349.226 122.896 351.66 120.158C354.094 117.42 356.071 112.806 357.592 106.315C357.897 105.199 358.556 104.642 359.57 104.642C360.787 104.642 361.243 105.656 360.939 107.684C359.316 116.71 356.73 123.049 353.181 126.699C349.631 130.249 345.321 132.024 340.25 132.024ZM328.08 84.7135H343.445C348.313 84.7135 350.747 82.1781 350.747 77.1074C350.747 70.5154 349.935 65.3432 348.313 61.5908C346.69 57.8384 344.256 55.9623 341.011 55.9623C337.056 55.9623 333.709 58.2441 330.971 62.8078C328.334 67.3715 326.61 73.8621 325.799 82.2796C325.596 83.9022 326.356 84.7135 328.08 84.7135Z" fill="white"/>
<path d="M285.696 132.024C283.363 132.024 280.878 131.72 278.242 131.111C275.605 130.604 273.475 129.945 271.852 129.133C270.94 128.626 270.483 127.764 270.483 126.547L270.027 109.51C270.027 107.786 270.686 106.923 272.004 106.923C273.12 106.923 273.881 107.735 274.286 109.357C276.01 116.558 278.089 121.477 280.523 124.113C283.059 126.75 286.101 128.069 289.651 128.069C292.592 128.069 295.026 126.953 296.953 124.722C298.88 122.389 299.843 119.195 299.843 115.138C299.843 111.082 298.727 107.481 296.496 104.337C294.265 101.194 290.513 97.7454 285.239 93.993C279.966 90.4435 276.112 86.894 273.678 83.3444C271.244 79.6935 270.027 75.7383 270.027 71.4788C270.027 65.6981 272.055 61.033 276.112 57.4835C280.168 53.9339 285.543 52.1592 292.237 52.1592C294.265 52.1592 296.243 52.4127 298.17 52.9198C300.097 53.3255 301.821 54.0354 303.342 55.0495C304.255 55.658 304.711 56.4693 304.711 57.4835L305.015 74.217C305.015 75.7383 304.407 76.4989 303.19 76.4989C302.48 76.4989 301.973 76.296 301.668 75.8904C301.364 75.3833 301.111 74.7748 300.908 74.0649C298.88 67.4729 296.851 62.9092 294.823 60.3738C292.795 57.737 290.31 56.4186 287.369 56.4186C284.732 56.4186 282.552 57.3314 280.828 59.1568C279.104 60.9823 278.242 63.2642 278.242 66.0024C278.242 69.5519 279.306 72.6451 281.436 75.2819C283.566 77.9187 287.42 81.164 292.997 85.0178C298.068 88.6687 301.871 92.6239 304.407 96.8834C307.043 101.041 308.362 105.605 308.362 110.574C308.362 117.065 306.283 122.288 302.125 126.243C297.967 130.097 292.49 132.024 285.696 132.024Z" fill="white"/>
<path d="M224.784 132.024C220.525 132.024 217.026 130.705 214.288 128.069C211.55 125.33 210.181 121.73 210.181 117.268C210.181 112.907 211.55 108.8 214.288 104.946C217.026 100.991 220.779 97.4412 225.545 94.2973C230.312 91.1534 235.737 88.618 241.822 86.6911C243.141 86.2855 243.8 85.4234 243.8 84.105V70.2618C243.8 65.3939 243.039 61.9458 241.518 59.9175C239.997 57.7877 237.918 56.7229 235.281 56.7229C232.746 56.7229 230.413 57.8891 228.283 60.2217C226.255 62.4528 224.784 66.2559 223.872 71.6309C223.365 74.8762 222.249 77.2595 220.525 78.7807C218.902 80.2005 217.229 80.9104 215.505 80.9104C212.665 80.9104 211.246 79.4906 211.246 76.651C211.246 73.71 212.057 70.8196 213.679 67.98C215.404 65.0389 217.635 62.4021 220.373 60.0696C223.111 57.6356 226.103 55.7087 229.348 54.2889C232.593 52.8691 235.839 52.1592 239.084 52.1592C249.124 52.1592 254.144 57.9906 254.144 69.6533V116.203C254.144 120.462 255.209 122.592 257.339 122.592C258.657 122.592 259.874 121.73 260.99 120.006C262.105 118.181 262.663 115.138 262.663 110.879C262.663 109.256 263.322 108.445 264.641 108.445C265.858 108.445 266.466 109.307 266.466 111.031C266.466 118.434 265.148 123.809 262.511 127.156C259.976 130.401 257.085 132.024 253.84 132.024C251.406 132.024 249.479 131.06 248.059 129.133C246.639 127.105 245.676 124.722 245.169 121.984C245.068 120.97 244.611 120.462 243.8 120.462C243.09 120.361 242.38 120.817 241.67 121.832C239.236 125.178 236.751 127.714 234.216 129.438C231.681 131.162 228.537 132.024 224.784 132.024ZM228.892 125.026C231.529 125.026 233.963 124.113 236.194 122.288C238.425 120.361 240.25 117.826 241.67 114.682C243.09 111.538 243.8 107.988 243.8 104.033V92.9282C243.8 91.0013 242.735 90.4435 240.605 91.2548C234.419 93.486 229.602 96.5791 226.154 100.534C222.807 104.388 221.134 109.053 221.134 114.53C221.134 121.527 223.72 125.026 228.892 125.026Z" fill="white"/>
<path d="M183.883 132.024C179.421 132.024 175.364 130.553 171.713 127.612C168.164 124.57 165.324 120.26 163.195 114.682C161.065 109.104 160 102.461 160 94.7536C160 86.1333 161.268 78.6286 163.803 72.2394C166.44 65.8503 169.989 60.9316 174.452 57.4835C178.914 53.9339 183.883 52.1592 189.36 52.1592C194.025 52.1592 197.676 53.0719 200.313 54.8974C201.327 55.6073 201.834 56.7229 201.834 58.2441L202.138 76.8031C202.138 78.3244 201.53 79.085 200.313 79.085C199.197 79.085 198.487 78.4258 198.183 77.1074C196.763 71.5295 195.394 67.2194 194.076 64.1769C192.757 61.1344 191.388 59.0554 189.968 57.9399C188.548 56.7229 186.976 56.1144 185.252 56.1144C183.224 56.1144 181.094 57.2807 178.863 59.6132C176.734 61.9458 174.908 65.7488 173.387 71.0224C171.967 76.1946 171.257 83.0402 171.257 91.5591C171.257 102.411 172.626 110.574 175.364 116.051C178.204 121.527 181.855 124.266 186.317 124.266C189.867 124.266 192.808 122.795 195.14 119.854C197.574 116.913 199.653 111.589 201.377 103.881C201.682 102.765 202.29 102.208 203.203 102.208C204.42 102.208 204.876 103.222 204.572 105.25C203.456 112.349 201.885 117.876 199.856 121.832C197.929 125.685 195.597 128.373 192.859 129.894C190.222 131.314 187.23 132.024 183.883 132.024Z" fill="white"/>
</svg>
